<?xml version="1.0" standalone="no"?>
<!DOCTYPE svg PUBLIC "-//W3C//DTD SVG 20010904//EN"
 "http://www.w3.org/TR/2001/REC-SVG-20010904/DTD/svg10.dtd">
<svg version="1.0" xmlns="http://www.w3.org/2000/svg"
 width="1254.000000pt" height="1254.000000pt" viewBox="0 0 1254.000000 1254.000000"
 preserveAspectRatio="xMidYMid meet">

<g transform="translate(0.000000,1254.000000) scale(0.100000,-0.100000)"
fill="#000000" stroke="none">
<path d="M8925 11044 c-189 -19 -256 -28 -363 -50 -212 -43 -460 -131 -656
-232 -119 -61 -332 -204 -431 -288 -72 -61 -1221 -1186 -1871 -1830 -221 -219
-256 -258 -288 -321 -77 -151 -96 -313 -53 -461 32 -108 77 -180 168 -266 85
-80 175 -132 289 -167 104 -32 255 -33 355 -1 156 49 169 60 735 614 1345
1315 1466 1431 1539 1481 491 332 1130 271 1546 -147 227 -227 349 -510 362
-832 9 -227 -34 -428 -137 -636 -100 -203 -124 -230 -857 -958 -570 -567 -683
-685 -710 -735 -154 -295 -15 -639 304 -750 269 -94 543 -28 768 184 253 238
1370 1358 1426 1431 220 284 359 566 444 900 52 203 59 276 60 575 0 249 -3
294 -23 406 -148 822 -657 1497 -1392 1848 -312 148 -649 227 -1005 235 -93 2
-188 2 -210 0z"/>
<path d="M3860 6984 c-147 -23 -257 -63 -364 -136 -116 -79 -1440 -1379 -1554
-1526 -233 -303 -373 -642 -423 -1027 -17 -131 -14 -427 5 -572 32 -243 115
-511 233 -751 317 -645 912 -1146 1588 -1336 692 -194 1413 -92 2011 283 222
140 303 216 1515 1423 548 546 744 747 767 789 196 342 54 735 -308 855 -39
13 -85 18 -160 18 -116 -1 -183 -18 -295 -77 -66 -35 -66 -35 -1065 -1017
-796 -782 -823 -809 -910 -867 -381 -256 -852 -291 -1279 -97 -180 82 -390
254 -517 423 -85 114 -177 300 -210 426 -35 135 -44 340 -19 469 28 152 87
295 176 429 44 66 73 96 874 881 536 526 580 574 626 695 30 79 37 227 14 307
-51 177 -175 303 -360 368 -105 36 -253 53 -345 40z"/>
<path d="M5298 6329 c-77 -11 -144 -47 -201 -108 -66 -70 -89 -127 -95 -232
-5 -98 11 -160 60 -240 33 -55 76 -90 156 -127 l57 -27 1230 0 1230 0 67 33
c134 66 203 184 202 342 -1 187 -113 327 -289 359 -71 13 -2324 13 -2417 0z"/>
</g>
</svg>
